<?xml version="1.0" encoding="UTF-8"?>
<svg id="Capa_2" xmlns="http://www.w3.org/2000/svg" viewBox="0 0 668.78 495.04">
  <defs>
    <style>
      .cls-1 {
        fill: #ffb31a;
        stroke: #6b2618;
        stroke-miterlimit: 10;
        stroke-width: 3.08px;
      }
    </style>
  </defs>
  <g id="BACKGROUND">
    <path class="cls-1" d="M24.25,1.72c16.32-1.48,33.16,6.53,42.33,20.11,9.16,13.59,10.27,32.2,2.78,46.78-5.03,9.8-13.37,17.45-19.72,26.45-6.35,9-10.73,20.82-6.43,30.96,5.61,13.23,22.41,16.98,33.11,26.57,17.22,15.45,15.51,43.58,5.38,64.37-10.13,20.8-26.81,37.82-37.24,58.47-10.43,20.65-12.98,48.53,3.56,64.7,15.56,15.21,40.53,13.61,61.95,9.81,21.42-3.8,45.15-8.37,63.62,3.13,25.91,16.12,28.65,56.16,54.95,71.65,17.52,10.31,40.16,6.09,58.47-2.75,18.31-8.84,34.48-21.84,53.29-29.56,18.81-7.73,42.37-9.09,57.77,4.18,17.14,14.78,18.49,42.3,35.65,57.06,19.02,16.36,48.79,9.8,70.22-3.23,21.43-13.03,39.93-31.69,63.83-39.3,24.32-7.74,52.42-2.24,72.03,14.09,19.61,16.33,30.09,42.98,26.88,68.3H1.54V74.8L24.25,1.72Z"/>
  </g>
</svg>