<?xml version="1.0" encoding="UTF-8"?>
<svg id="Capa_2" xmlns="http://www.w3.org/2000/svg" viewBox="0 0 1140.93 21.46">
  <defs>
    <style>
      .cls-1 {
        fill: none;
        stroke: #ff781d;
        stroke-miterlimit: 10;
        stroke-width: 1.54px;
      }
    </style>
  </defs>
  <g id="BACKGROUND">
    <line class="cls-1" x1="1140.39" y1=".55" x2="1120.02" y2="20.92"/>
    <line class="cls-1" x1="1123.93" y1=".55" x2="1103.56" y2="20.92"/>
    <line class="cls-1" x1="1107.46" y1=".55" x2="1087.09" y2="20.92"/>
    <line class="cls-1" x1="1091" y1=".55" x2="1070.63" y2="20.92"/>
    <line class="cls-1" x1="1074.54" y1=".55" x2="1054.17" y2="20.92"/>
    <line class="cls-1" x1="1058.07" y1=".55" x2="1037.7" y2="20.92"/>
    <line class="cls-1" x1="1041.61" y1=".55" x2="1021.24" y2="20.92"/>
    <line class="cls-1" x1="1025.15" y1=".55" x2="1004.78" y2="20.92"/>
    <line class="cls-1" x1="1008.69" y1=".55" x2="988.32" y2="20.92"/>
    <line class="cls-1" x1="992.22" y1=".55" x2="971.85" y2="20.92"/>
    <line class="cls-1" x1="975.76" y1=".55" x2="955.39" y2="20.92"/>
    <line class="cls-1" x1="959.3" y1=".55" x2="938.93" y2="20.92"/>
    <line class="cls-1" x1="942.83" y1=".55" x2="922.46" y2="20.92"/>
    <line class="cls-1" x1="926.37" y1=".55" x2="906" y2="20.92"/>
    <line class="cls-1" x1="909.91" y1=".55" x2="889.54" y2="20.92"/>
    <line class="cls-1" x1="893.45" y1=".55" x2="873.08" y2="20.92"/>
    <line class="cls-1" x1="876.98" y1=".55" x2="856.61" y2="20.92"/>
    <line class="cls-1" x1="860.52" y1=".55" x2="840.15" y2="20.92"/>
    <line class="cls-1" x1="844.06" y1=".55" x2="823.69" y2="20.92"/>
    <line class="cls-1" x1="827.6" y1=".55" x2="807.22" y2="20.92"/>
    <line class="cls-1" x1="811.13" y1=".55" x2="790.76" y2="20.92"/>
    <line class="cls-1" x1="794.67" y1=".55" x2="774.3" y2="20.92"/>
    <line class="cls-1" x1="778.21" y1=".55" x2="757.84" y2="20.92"/>
    <line class="cls-1" x1="761.74" y1=".55" x2="741.37" y2="20.92"/>
    <line class="cls-1" x1="745.28" y1=".55" x2="724.91" y2="20.92"/>
    <line class="cls-1" x1="728.82" y1=".55" x2="708.45" y2="20.92"/>
    <line class="cls-1" x1="712.36" y1=".55" x2="691.98" y2="20.92"/>
    <line class="cls-1" x1="695.89" y1=".55" x2="675.52" y2="20.92"/>
    <line class="cls-1" x1="679.43" y1=".55" x2="659.06" y2="20.92"/>
    <line class="cls-1" x1="662.97" y1=".55" x2="642.6" y2="20.92"/>
    <line class="cls-1" x1="646.5" y1=".55" x2="626.13" y2="20.92"/>
    <line class="cls-1" x1="630.04" y1=".55" x2="609.67" y2="20.92"/>
    <line class="cls-1" x1="613.58" y1=".55" x2="593.21" y2="20.92"/>
    <line class="cls-1" x1="597.12" y1=".55" x2="576.74" y2="20.92"/>
    <line class="cls-1" x1="580.65" y1=".55" x2="560.28" y2="20.92"/>
    <line class="cls-1" x1="564.19" y1=".55" x2="543.82" y2="20.92"/>
    <line class="cls-1" x1="547.73" y1=".55" x2="527.36" y2="20.92"/>
    <line class="cls-1" x1="531.26" y1=".55" x2="510.89" y2="20.92"/>
    <line class="cls-1" x1="514.8" y1=".55" x2="494.43" y2="20.92"/>
    <line class="cls-1" x1="498.34" y1=".55" x2="477.97" y2="20.92"/>
    <line class="cls-1" x1="481.88" y1=".55" x2="461.5" y2="20.92"/>
    <line class="cls-1" x1="465.41" y1=".55" x2="445.04" y2="20.92"/>
    <line class="cls-1" x1="448.95" y1=".55" x2="428.58" y2="20.92"/>
    <line class="cls-1" x1="432.49" y1=".55" x2="412.12" y2="20.92"/>
    <line class="cls-1" x1="416.02" y1=".55" x2="395.65" y2="20.92"/>
    <line class="cls-1" x1="399.56" y1=".55" x2="379.19" y2="20.92"/>
    <line class="cls-1" x1="383.1" y1=".55" x2="362.73" y2="20.92"/>
    <line class="cls-1" x1="366.64" y1=".55" x2="346.26" y2="20.92"/>
    <line class="cls-1" x1="350.17" y1=".55" x2="329.8" y2="20.92"/>
    <line class="cls-1" x1="333.71" y1=".55" x2="313.34" y2="20.92"/>
    <line class="cls-1" x1="317.25" y1=".55" x2="296.88" y2="20.92"/>
    <line class="cls-1" x1="300.78" y1=".55" x2="280.41" y2="20.92"/>
    <line class="cls-1" x1="284.32" y1=".55" x2="263.95" y2="20.92"/>
    <line class="cls-1" x1="267.86" y1=".55" x2="247.49" y2="20.92"/>
    <line class="cls-1" x1="251.4" y1=".55" x2="231.02" y2="20.92"/>
    <line class="cls-1" x1="234.93" y1=".55" x2="214.56" y2="20.92"/>
    <line class="cls-1" x1="218.47" y1=".55" x2="198.1" y2="20.92"/>
    <line class="cls-1" x1="202.01" y1=".55" x2="181.64" y2="20.92"/>
    <line class="cls-1" x1="185.54" y1=".55" x2="165.17" y2="20.92"/>
    <line class="cls-1" x1="169.08" y1=".55" x2="148.71" y2="20.92"/>
    <line class="cls-1" x1="152.62" y1=".55" x2="132.25" y2="20.92"/>
    <line class="cls-1" x1="136.16" y1=".55" x2="115.78" y2="20.92"/>
    <line class="cls-1" x1="119.69" y1=".55" x2="99.32" y2="20.92"/>
    <line class="cls-1" x1="103.23" y1=".55" x2="82.86" y2="20.92"/>
    <line class="cls-1" x1="86.77" y1=".55" x2="66.4" y2="20.92"/>
    <line class="cls-1" x1="70.3" y1=".55" x2="49.93" y2="20.92"/>
    <line class="cls-1" x1="53.84" y1=".55" x2="33.47" y2="20.92"/>
    <line class="cls-1" x1="37.38" y1=".55" x2="17.01" y2="20.92"/>
    <line class="cls-1" x1="20.92" y1=".55" x2=".55" y2="20.92"/>
  </g>
</svg>