<?xml version="1.0" encoding="UTF-8"?>
<svg id="Capa_2" xmlns="http://www.w3.org/2000/svg" viewBox="0 0 1118.57 551.93">
  <defs>
    <style>
      .cls-1 {
        fill: #1d1d1b;
      }
    </style>
  </defs>
  <g id="BACKGROUND">
    <path class="cls-1" d="M1118.57,551.93L0,543.86V43.26L45.24,6.42c14.06-14.64,41.3-2.2,47.71,17.05,6.41,19.26-.98,40.12-8.54,58.95-7.57,18.83-15.54,39.29-10.2,58.88,6.97,25.58,34.68,41.78,40.47,67.65,9.53,42.53-44.32,76.95-42.4,120.5,1.41,32.05,34.19,55.26,66.11,58.33,31.93,3.07,63.18-8.52,93.72-18.35,30.53-9.83,63.67-18.06,94.27-8.44,32.32,10.16,55.21,37.98,79.86,61.23,24.64,23.25,57.94,44.01,90.58,34.93,43.34-12.05,65.57-71.46,110.54-72.29,45.62-.84,67.47,57.98,108.75,77.4,54.74,25.75,116.97-25.85,177.06-18.86,49.29,5.74,90.95,50.47,140.21,44.51,38.44-4.65,45.61-42.93,84.25-40.3"/>
  </g>
</svg>