<?xml version="1.0" encoding="UTF-8"?>
<svg id="Capa_2" xmlns="http://www.w3.org/2000/svg" viewBox="0 0 1115.4 301.29">
  <defs>
    <style>
      .cls-1 {
        fill: #1d1d1b;
      }
    </style>
  </defs>
  <g id="BACKGROUND">
    <path class="cls-1" d="M1.34,44.64c-5.55,32.56,6.39,67.5,30.84,90.2,24.44,22.71,60.68,32.52,93.55,25.34,28.21-6.16,52.67-23.61,80.61-30.83,48.59-12.56,99.19,7.25,144.96,27.59,45.77,20.34,94.82,42.16,144.31,33.62,34.64-5.98,64.89-26.28,98.51-36.44,33.61-10.16,77.2-6.08,94.22,24.09,10.7,18.97,7.69,42.86,16.81,62.61,10.33,22.36,34.24,35.47,57.72,44,113.08,41.07,251.06,3.16,325.89-89.54l26.64-41.96V0H30.15L1.34,44.64Z"/>
  </g>
</svg>