<?xml version="1.0" encoding="UTF-8"?>
<svg id="Capa_2" xmlns="http://www.w3.org/2000/svg" viewBox="0 0 78.5 78.32">
  <defs>
    <style>
      .cls-1 {
        fill: #6b2618;
      }

      .cls-1, .cls-2 {
        stroke: #6b2618;
        stroke-miterlimit: 10;
        stroke-width: 2.57px;
      }

      .cls-3 {
        fill: #ffb31a;
      }

      .cls-2 {
        fill: none;
      }
    </style>
  </defs>
  <g id="BACKGROUND">
    <path class="cls-1" d="M10.93,69.85h0c0,6.38,7.71,9.58,12.23,5.06l51.96-51.96c1.34-1.34,2.1-3.16,2.1-5.06h0c0-6.38-7.71-9.58-12.23-5.06L13.03,64.79c-1.34,1.34-2.1,3.16-2.1,5.06Z"/>
    <path class="cls-2" d="M1.29,60.64h0c0,6.38,7.71,9.58,12.23,5.06L65.48,13.74c1.34-1.34,2.1-3.16,2.1-5.06h0c0-6.38-7.71-9.58-12.23-5.06L3.38,55.58c-1.34,1.34-2.1,3.16-2.1,5.06Z"/>
    <path class="cls-3" d="M1.72,59.14h0c0,6.38,7.71,9.58,12.23,5.06L65.91,12.24c1.34-1.34,2.1-3.16,2.1-5.06h0c0-6.38-7.71-9.58-12.23-5.06L3.81,54.08c-1.34,1.34-2.1,3.16-2.1,5.06Z"/>
  </g>
</svg>